<svg xmlns="http://www.w3.org/2000/svg" style="display: none;">
    <symbol id="arrow-dropdown">
        <svg viewBox="0 0 24 24" fill="none" xmlns="http://www.w3.org/2000/svg">
            <g clip-path="url(#clip0_1_9980)">
                <path d="M12 14L8 10H16L12 14Z" fill="#414141"/>
            </g>
            <defs>
                <clipPath id="clip0_1_9980">
                    <rect width="24" height="24" fill="white"/>
                </clipPath>
            </defs>
        </svg>
    </symbol>

    <symbol id="arrow-link">
        <svg width="11" height="11" viewBox="0 0 11 11" fill="none" xmlns="http://www.w3.org/2000/svg">
            <path d="M8.76838 2.98725L1.23725 10.5184L0 9.28113L7.53025 1.75H0.893375V0H10.5184V9.625H8.76838V2.98725V2.98725Z"
                  fill="currentColor"/>
        </svg>
    </symbol>

    <symbol id="lock-fill">
        <svg width="18" height="18" viewBox="0 0 18 18" fill="none" xmlns="http://www.w3.org/2000/svg">
            <g clip-path="url(#clip0_1_10328)">
                <path d="M3.75 7.5H3C2.80109 7.5 2.61032 7.57902 2.46967 7.71967C2.32902 7.86032 2.25 8.05109 2.25 8.25V15.75C2.25 15.9489 2.32902 16.1397 2.46967 16.2803C2.61032 16.421 2.80109 16.5 3 16.5H15C15.1989 16.5 15.3897 16.421 15.5303 16.2803C15.671 16.1397 15.75 15.9489 15.75 15.75V8.25C15.75 8.05109 15.671 7.86032 15.5303 7.71967C15.3897 7.57902 15.1989 7.5 15 7.5H14.25V6.75C14.25 6.06056 14.1142 5.37787 13.8504 4.74091C13.5865 4.10395 13.1998 3.5252 12.7123 3.03769C12.2248 2.55018 11.646 2.16347 11.0091 1.89963C10.3721 1.6358 9.68944 1.5 9 1.5C8.31056 1.5 7.62787 1.6358 6.99091 1.89963C6.35395 2.16347 5.7752 2.55018 5.28769 3.03769C4.80018 3.5252 4.41347 4.10395 4.14963 4.74091C3.88579 5.37787 3.75 6.06056 3.75 6.75V7.5ZM5.25 7.5V6.75C5.25 5.75544 5.64509 4.80161 6.34835 4.09835C7.05161 3.39509 8.00544 3 9 3C9.99456 3 10.9484 3.39509 11.6517 4.09835C12.3549 4.80161 12.75 5.75544 12.75 6.75V7.5H5.25ZM9.75 10.5V13.5H8.25V10.5H9.75Z"
                      fill="white"/>
            </g>
            <defs>
                <clipPath id="clip0_1_10328">
                    <rect width="18" height="18" fill="white" transform="matrix(-1 0 0 1 18 0)"/>
                </clipPath>
            </defs>
        </svg>
    </symbol>

    <symbol id="logout-circle">
        <svg viewBox="0 0 18 18" fill="none" xmlns="http://www.w3.org/2000/svg">
            <g clip-path="url(#clip0_1_10326)">
                <path d="M9 16.5C4.85775 16.5 1.5 13.1423 1.5 9C1.5 4.85775 4.85775 1.5 9 1.5C13.1423 1.5 16.5 4.85775 16.5 9C16.5 13.1423 13.1423 16.5 9 16.5ZM12.75 12L16.5 9L12.75 6V8.25H6.75V9.75H12.75V12Z"
                      fill="white"/>
            </g>
            <defs>
                <clipPath id="clip0_1_10326">
                    <rect width="18" height="18" fill="white"/>
                </clipPath>
            </defs>
        </svg>
    </symbol>

    <symbol id="user-icon">
        <svg viewBox="0 0 24 24" fill="none" xmlns="http://www.w3.org/2000/svg">
            <path d="M11 14.062V20H13V14.062C16.946 14.554 20 17.92 20 22H4C4.00003 20.0514 4.71119 18.1698 6 16.7083C7.28882 15.2467 9.0667 14.3058 11 14.062ZM12 13C8.685 13 6 10.315 6 7C6 3.685 8.685 1 12 1C15.315 1 18 3.685 18 7C18 10.315 15.315 13 12 13Z"
                  fill="white"/>
        </svg>
    </symbol>
</svg>
